<svg width="13" height="13" viewBox="0 0 13 13" xmlns="http://www.w3.org/2000/svg"><path d="M12.4379 9.14802C12.6279 8.72302 12.1169 8.36102 11.6899 8.54702C10.6773 8.98732 9.55567 9.11266 8.47088 8.90671C7.38608 8.70077 6.38839 8.17308 5.60762 7.39231C4.82686 6.61155 4.29917 5.61386 4.09323 4.52906C3.88728 3.44427 4.01262 2.3226 4.45292 1.31002C4.63892 0.88302 4.27692 0.37202 3.85292 0.56202C2.89004 0.991476 2.04606 1.64867 1.39374 2.47695C0.741418 3.30523 0.300331 4.27973 0.108507 5.31644C-0.0833159 6.35315 -0.0201198 7.42096 0.292647 8.42781C0.605414 9.43466 1.15837 10.3503 1.90383 11.0959C2.6493 11.8414 3.5649 12.3945 4.57172 12.7074C5.57853 13.0203 6.64633 13.0836 7.68306 12.8919C8.7198 12.7002 9.69435 12.2592 10.5227 11.607C11.3511 10.9548 12.0084 10.1108 12.4379 9.14802Z"/></svg>
